<svg id="Layer_1" data-name="Layer 1" xmlns="http://www.w3.org/2000/svg" viewBox="0 0 120 120"><title>fb-live-logo</title><rect x="10" y="10" width="100" height="100" rx="15.24" fill="#f42345"/><path d="M76.53,60.29c0,5.29.13,10.58-.06,15.86a16.22,16.22,0,0,1-1.39,6.11c-2,4.28-5.68,6.28-10.29,6.32-9.69.1-19.39.15-29.09,0C28.32,88.45,24.09,83.38,24,77c-.23-11.33-.26-22.68,0-34,.15-6.35,4.27-11.29,11.49-11.46,9.81-.23,19.65-.23,29.46,0,7.42.17,11.34,5.35,11.56,11.79C76.69,49,76.53,54.62,76.53,60.29ZM50.45,72.54c1.82-.37,3.78-.44,5.44-1.18,4.61-2.07,8.81-4.76,11.64-9.15,1.28-2,1.29-2.38,0-4.36-2.83-4.39-7-7.1-11.64-9.16A14.49,14.49,0,0,0,46,48.24a23.64,23.64,0,0,0-10.16,6.17,40,40,0,0,0-3.18,3.7,2.86,2.86,0,0,0,0,3.82,30.45,30.45,0,0,0,4,4.46C40.6,69.71,44.77,72.73,50.45,72.54Z" fill="#fff"/><path d="M96.2,60.16c0,5.17,0,10.33,0,15.49a8.26,8.26,0,0,1-.65,3.24c-1,2.06-2.69,2.65-4.62,1.43a77.67,77.67,0,0,1-8.24-5.91A5,5,0,0,1,81.43,71c-.11-7.3-.05-14.6-.06-21.9a4.72,4.72,0,0,1,2.37-4.37c2.33-1.46,4.39-3.36,6.73-4.8,2.65-1.64,5.21-.29,5.69,2.84a15.46,15.46,0,0,1,0,2.26Q96.21,52.61,96.2,60.16Z" fill="#fff"/><path d="M57.61,60.06c-.4,4-3,7.14-7.24,7.27a7.31,7.31,0,1,1,.06-14.61C54.86,52.93,57.26,56.25,57.61,60.06Z" fill="#fff"/></svg>