<svg id="Layer_1" data-name="Layer 1" xmlns="http://www.w3.org/2000/svg" xmlns:xlink="http://www.w3.org/1999/xlink" viewBox="0 0 120 120"><defs><radialGradient id="radial-gradient" cx="-49.05" cy="330.54" r="0.14" gradientTransform="matrix(800, 0, 0, -800, 39266.75, 264541.08)" gradientUnits="userSpaceOnUse"><stop offset="0" stop-color="#09f"/><stop offset="0.61" stop-color="#a033ff"/><stop offset="0.93" stop-color="#ff5280"/><stop offset="1" stop-color="#ff7061"/></radialGradient></defs><title>messenger-logo</title><g id="logo"><path id="bubble" d="M60,10C31.83,10,10,30.63,10,58.5A47.42,47.42,0,0,0,25.7,94.37a4,4,0,0,1,1.35,2.85l.27,8.9a4,4,0,0,0,5.61,3.54l9.93-4.39a4,4,0,0,1,2.67-.19A54.66,54.66,0,0,0,60,107c28.17,0,50-20.63,50-48.5S88.17,10,60,10Z" fill-rule="evenodd" fill="url(#radial-gradient)"/><path id="bolt" d="M30,72.68l14.68-23.3a7.5,7.5,0,0,1,10.85-2l11.68,8.76a3,3,0,0,0,3.61,0l15.78-12A2.38,2.38,0,0,1,90,47.32L75.34,70.62a7.5,7.5,0,0,1-10.85,2L52.81,63.86a3,3,0,0,0-3.61,0l-15.78,12A2.37,2.37,0,0,1,30,72.68Z" fill="#fff" fill-rule="evenodd"/></g></svg>